<?xml version="1.0" encoding="UTF-8"?>
<svg xmlns="http://www.w3.org/2000/svg" width="940" height="580" viewBox="0 0 940 580">
  <title>Two-stage partial-carrier Fourier-Galerkin shell energies</title>
  <rect width="940" height="580" fill="#ffffff"/>
  <g stroke="#cbd5e1" stroke-width="1" fill="none">
    <rect x="88.0" y="64.0" width="816.0" height="182.0"/>
    <rect x="88.0" y="330.0" width="816.0" height="186.0"/>
  </g>
  <g font-family="sans-serif" fill="#0f172a">
    <text x="88.0" y="32" font-size="18">Two-stage rejected carrier — pathway-contaminated numerical diagnostic</text>
    <text x="20" y="155.0" font-size="13" transform="rotate(-90 20 155.0)">parent and total / initial energy</text>
    <text x="20" y="423.0" font-size="13" transform="rotate(-90 20 423.0)">other shell / initial energy</text>
    <text x="496.0" y="558" font-size="13">scaled time N²t</text>
    <text x="634.0" y="84" font-size="12" fill="#2563eb">parents</text>
    <text x="724.0" y="84" font-size="12" fill="#0f172a">total</text>
    <text x="504.0" y="350" font-size="12" fill="#16a34a">intended children</text>
    <text x="629.0" y="350" font-size="12" fill="#dc2626">cross-talk</text>
    <text x="714.0" y="350" font-size="12" fill="#7c3aed">intended grandchildren</text>
    <text x="859.0" y="350" font-size="12" fill="#d97706">remainder</text>
  </g>
  <polyline id="parent-energy" points="88.000000,64.000000 139.000000,74.484219 190.000000,84.977702 241.000000,95.479827 292.000000,105.989973 343.000000,116.507526 394.000000,127.031876 445.000000,137.562418 496.000000,148.098551 547.000000,158.639681 598.000000,169.185217 649.000000,179.734572 700.000000,190.287168 751.000000,200.842428 802.000000,211.399782 853.000000,221.958666 904.000000,232.518519" fill="none" stroke="#2563eb" stroke-width="2.5"/>
  <polyline id="total-energy" points="88.000000,64.000000 139.000000,74.463065 190.000000,84.893746 241.000000,95.292401 292.000000,105.659382 343.000000,115.995031 394.000000,126.299686 445.000000,136.573677 496.000000,146.817326 547.000000,157.030951 598.000000,167.214862 649.000000,177.369362 700.000000,187.494749 751.000000,197.591314 802.000000,207.659343 853.000000,217.699115 904.000000,227.710903" fill="none" stroke="#0f172a" stroke-width="2.5"/>
  <polyline id="intended-child-energy" points="88.000000,516.000000 139.000000,515.243656 190.000000,512.997366 241.000000,509.295125 292.000000,504.170751 343.000000,497.657879 394.000000,489.789947 445.000000,480.600186 496.000000,470.121608 547.000000,458.387000 598.000000,445.428911 649.000000,431.279640 700.000000,415.971236 751.000000,399.535479 802.000000,382.003879 853.000000,363.407665 904.000000,343.777778" fill="none" stroke="#16a34a" stroke-width="2.5"/>
  <polyline id="cross-talk-energy" points="88.000000,516.000000 139.000000,515.244147 190.000000,513.001263 241.000000,509.308159 292.000000,504.201367 343.000000,497.717133 394.000000,489.891410 445.000000,480.759845 496.000000,470.357774 547.000000,458.720214 598.000000,445.881854 649.000000,431.877047 700.000000,416.739808 751.000000,400.503802 802.000000,383.202339 853.000000,364.868370 904.000000,345.534479" fill="none" stroke="#dc2626" stroke-width="2.5"/>
  <polyline id="intended-grandchild-energy" points="88.000000,516.000000 139.000000,516.000000 190.000000,515.999994 241.000000,515.999972 292.000000,515.999912 343.000000,515.999788 394.000000,515.999567 445.000000,515.999209 496.000000,515.998670 547.000000,515.997899 598.000000,515.996842 649.000000,515.995440 700.000000,515.993631 751.000000,515.991349 802.000000,515.988524 853.000000,515.985084 904.000000,515.980956" fill="none" stroke="#7c3aed" stroke-width="2.5"/>
  <polyline id="remainder-energy" points="88.000000,516.000000 139.000000,515.621928 190.000000,514.499307 241.000000,512.649067 292.000000,510.087551 343.000000,506.830537 394.000000,502.893262 445.000000,498.290443 496.000000,493.036304 547.000000,487.144594 598.000000,480.628611 649.000000,473.501220 700.000000,465.774876 751.000000,457.461639 802.000000,448.573199 853.000000,439.120887 904.000000,429.115700" fill="none" stroke="#d97706" stroke-width="2.5"/>
</svg>
